<mxfile host="app.diagrams.net" agent="Mozilla/5.0 (Windows NT 10.0; Win64; x64) AppleWebKit/537.36 (KHTML, like Gecko) Chrome/136.0.0.0 Safari/537.36 Edg/136.0.0.0" version="27.1.6">
  <diagram name="第 1 页" id="aTCW8c7fX1OC72tKNPOs">
    <mxGraphModel dx="1117" dy="762" grid="1" gridSize="10" guides="1" tooltips="1" connect="1" arrows="1" fold="1" page="1" pageScale="1" pageWidth="1654" pageHeight="2336" math="0" shadow="0">
      <root>
        <mxCell id="0" />
        <mxCell id="1" parent="0" />
        <mxCell id="6ucZ4N3q14ly0Ma9brnI-1" value="" style="swimlane;startSize=0;" vertex="1" parent="1">
          <mxGeometry x="100" y="270" width="720" height="590" as="geometry" />
        </mxCell>
        <mxCell id="6ucZ4N3q14ly0Ma9brnI-2" value="云台" style="text;html=1;align=center;verticalAlign=middle;resizable=0;points=[];autosize=1;strokeColor=none;fillColor=none;" vertex="1" parent="6ucZ4N3q14ly0Ma9brnI-1">
          <mxGeometry y="10" width="50" height="30" as="geometry" />
        </mxCell>
        <mxCell id="6ucZ4N3q14ly0Ma9brnI-4" value="C板" style="whiteSpace=wrap;html=1;" vertex="1" parent="6ucZ4N3q14ly0Ma9brnI-1">
          <mxGeometry x="300" y="60" width="120" height="60" as="geometry" />
        </mxCell>
        <mxCell id="6ucZ4N3q14ly0Ma9brnI-7" value="" style="swimlane;startSize=0;" vertex="1" parent="6ucZ4N3q14ly0Ma9brnI-1">
          <mxGeometry x="40" y="130" width="190" height="110" as="geometry" />
        </mxCell>
        <mxCell id="6ucZ4N3q14ly0Ma9brnI-5" value="3508-1" style="whiteSpace=wrap;html=1;" vertex="1" parent="6ucZ4N3q14ly0Ma9brnI-7">
          <mxGeometry x="10" y="20" width="80" height="30" as="geometry" />
        </mxCell>
        <mxCell id="6ucZ4N3q14ly0Ma9brnI-6" value="3508-2" style="whiteSpace=wrap;html=1;" vertex="1" parent="6ucZ4N3q14ly0Ma9brnI-7">
          <mxGeometry x="100" y="20" width="80" height="30" as="geometry" />
        </mxCell>
        <mxCell id="6ucZ4N3q14ly0Ma9brnI-8" value="发射机构" style="text;html=1;align=center;verticalAlign=middle;resizable=0;points=[];autosize=1;strokeColor=none;fillColor=none;" vertex="1" parent="6ucZ4N3q14ly0Ma9brnI-7">
          <mxGeometry width="70" height="30" as="geometry" />
        </mxCell>
        <mxCell id="6ucZ4N3q14ly0Ma9brnI-11" value="2006" style="whiteSpace=wrap;html=1;" vertex="1" parent="6ucZ4N3q14ly0Ma9brnI-7">
          <mxGeometry x="55" y="70" width="80" height="30" as="geometry" />
        </mxCell>
        <mxCell id="6ucZ4N3q14ly0Ma9brnI-16" value="小云台" style="swimlane;whiteSpace=wrap;html=1;" vertex="1" parent="6ucZ4N3q14ly0Ma9brnI-1">
          <mxGeometry x="490" y="120" width="200" height="120" as="geometry" />
        </mxCell>
        <mxCell id="6ucZ4N3q14ly0Ma9brnI-17" value="4310" style="whiteSpace=wrap;html=1;" vertex="1" parent="6ucZ4N3q14ly0Ma9brnI-16">
          <mxGeometry x="45" y="30" width="110" height="30" as="geometry" />
        </mxCell>
        <mxCell id="6ucZ4N3q14ly0Ma9brnI-19" value="6020" style="whiteSpace=wrap;html=1;" vertex="1" parent="6ucZ4N3q14ly0Ma9brnI-16">
          <mxGeometry x="45" y="80" width="115" height="30" as="geometry" />
        </mxCell>
        <mxCell id="6ucZ4N3q14ly0Ma9brnI-26" style="edgeStyle=orthogonalEdgeStyle;rounded=0;orthogonalLoop=1;jettySize=auto;html=1;fillColor=#e51400;strokeColor=#B20000;" edge="1" parent="6ucZ4N3q14ly0Ma9brnI-1" source="6ucZ4N3q14ly0Ma9brnI-22" target="6ucZ4N3q14ly0Ma9brnI-5">
          <mxGeometry relative="1" as="geometry" />
        </mxCell>
        <mxCell id="6ucZ4N3q14ly0Ma9brnI-22" value="摩擦轮电调1" style="whiteSpace=wrap;html=1;rotation=90;" vertex="1" parent="6ucZ4N3q14ly0Ma9brnI-1">
          <mxGeometry x="210" y="70" width="90" height="30" as="geometry" />
        </mxCell>
        <mxCell id="6ucZ4N3q14ly0Ma9brnI-27" style="edgeStyle=orthogonalEdgeStyle;rounded=0;orthogonalLoop=1;jettySize=auto;html=1;entryX=0.5;entryY=1;entryDx=0;entryDy=0;fillColor=#e51400;strokeColor=#B20000;" edge="1" parent="6ucZ4N3q14ly0Ma9brnI-1" source="6ucZ4N3q14ly0Ma9brnI-23" target="6ucZ4N3q14ly0Ma9brnI-6">
          <mxGeometry relative="1" as="geometry" />
        </mxCell>
        <mxCell id="6ucZ4N3q14ly0Ma9brnI-23" value="摩擦轮电调2" style="whiteSpace=wrap;html=1;rotation=90;" vertex="1" parent="6ucZ4N3q14ly0Ma9brnI-1">
          <mxGeometry x="210" y="280" width="90" height="30" as="geometry" />
        </mxCell>
        <mxCell id="6ucZ4N3q14ly0Ma9brnI-31" style="edgeStyle=orthogonalEdgeStyle;rounded=0;orthogonalLoop=1;jettySize=auto;html=1;entryX=0.5;entryY=1;entryDx=0;entryDy=0;fillColor=#e51400;strokeColor=#B20000;" edge="1" parent="6ucZ4N3q14ly0Ma9brnI-1" source="6ucZ4N3q14ly0Ma9brnI-30" target="6ucZ4N3q14ly0Ma9brnI-11">
          <mxGeometry relative="1" as="geometry" />
        </mxCell>
        <mxCell id="6ucZ4N3q14ly0Ma9brnI-30" value="拨弹盘电调" style="whiteSpace=wrap;html=1;" vertex="1" parent="6ucZ4N3q14ly0Ma9brnI-1">
          <mxGeometry x="80" y="300" width="110" height="30" as="geometry" />
        </mxCell>
        <mxCell id="6ucZ4N3q14ly0Ma9brnI-24" style="edgeStyle=orthogonalEdgeStyle;rounded=0;orthogonalLoop=1;jettySize=auto;html=1;entryX=0.5;entryY=0;entryDx=0;entryDy=0;fillColor=#e51400;strokeColor=#B20000;" edge="1" parent="1" source="6ucZ4N3q14ly0Ma9brnI-20" target="6ucZ4N3q14ly0Ma9brnI-22">
          <mxGeometry relative="1" as="geometry" />
        </mxCell>
        <mxCell id="6ucZ4N3q14ly0Ma9brnI-25" style="edgeStyle=orthogonalEdgeStyle;rounded=0;orthogonalLoop=1;jettySize=auto;html=1;entryX=0.5;entryY=0;entryDx=0;entryDy=0;fillColor=#e51400;strokeColor=#B20000;" edge="1" parent="1" source="6ucZ4N3q14ly0Ma9brnI-20" target="6ucZ4N3q14ly0Ma9brnI-23">
          <mxGeometry relative="1" as="geometry" />
        </mxCell>
        <mxCell id="6ucZ4N3q14ly0Ma9brnI-29" style="edgeStyle=orthogonalEdgeStyle;rounded=0;orthogonalLoop=1;jettySize=auto;html=1;entryX=0;entryY=0.5;entryDx=0;entryDy=0;fillColor=#e51400;strokeColor=#B20000;" edge="1" parent="1" source="6ucZ4N3q14ly0Ma9brnI-20" target="6ucZ4N3q14ly0Ma9brnI-17">
          <mxGeometry relative="1" as="geometry" />
        </mxCell>
        <mxCell id="6ucZ4N3q14ly0Ma9brnI-32" style="edgeStyle=orthogonalEdgeStyle;rounded=0;orthogonalLoop=1;jettySize=auto;html=1;entryX=0.5;entryY=1;entryDx=0;entryDy=0;fillColor=#e51400;strokeColor=#B20000;" edge="1" parent="1" source="6ucZ4N3q14ly0Ma9brnI-20" target="6ucZ4N3q14ly0Ma9brnI-30">
          <mxGeometry relative="1" as="geometry">
            <Array as="points">
              <mxPoint x="460" y="620" />
              <mxPoint x="235" y="620" />
            </Array>
          </mxGeometry>
        </mxCell>
        <mxCell id="6ucZ4N3q14ly0Ma9brnI-20" value="分电板" style="whiteSpace=wrap;html=1;" vertex="1" parent="1">
          <mxGeometry x="410" y="440" width="100" height="30" as="geometry" />
        </mxCell>
        <mxCell id="6ucZ4N3q14ly0Ma9brnI-21" style="edgeStyle=orthogonalEdgeStyle;rounded=0;orthogonalLoop=1;jettySize=auto;html=1;fillColor=#e51400;strokeColor=#B20000;" edge="1" parent="1" source="6ucZ4N3q14ly0Ma9brnI-4" target="6ucZ4N3q14ly0Ma9brnI-20">
          <mxGeometry relative="1" as="geometry" />
        </mxCell>
      </root>
    </mxGraphModel>
  </diagram>
</mxfile>
